<?xml version="1.0" encoding="utf-8"?><svg xmlns="http://www.w3.org/2000/svg" xmlns:xlink="http://www.w3.org/1999/xlink"><symbol viewBox="0 0 494.72 494.72" id="adress" xmlns="http://www.w3.org/2000/svg"><path d="M323.191 4.266L171.522 47.394 4.86 0v443.062l166.662 47.394 151.669-43.128L489.86 494.72V51.659L323.191 4.266zM459.86 259.332l-65.917-65.917c6.283-11.664 9.662-24.816 9.662-38.141 0-20.534-7.747-39.287-20.458-53.513l38.352-38.352 38.361 10.908v185.015zm-261.07 26.786l70.046-70.046 54.355 68.339 52.862-66.461 34.238 34.238-122.715 122.716-88.786-88.786zM34.86 220.863l82.798-82.799 33.057 33.057L34.86 286.978v-66.115zm0 108.541l137.068-137.07 39.11 39.11L34.86 407.622v-78.218zm142.717-22.073l45.13 45.131-94.49 94.49-70.277-19.985 119.637-119.636zm196.028-152.057c0 11.437-3.752 22.226-10.825 31.169l-39.589 49.774-39.563-49.742c-7.099-8.976-10.851-19.766-10.851-31.202 0-27.798 22.616-50.414 50.414-50.414s50.414 22.617 50.414 50.415zm14.861-101.258l-29.348 29.348a79.904 79.904 0 00-35.927-8.503c-44.34 0-80.414 36.073-80.414 80.414 0 12.481 2.963 24.812 8.51 35.921l-19.036 19.036-93.38-93.38 40.501-40.501L323.19 35.455l65.276 18.561zM142.864 70.434L34.86 178.438V39.721l108.004 30.713zm18.386 385.911l82.67-82.67 50.612 50.612-123.011 34.979-10.271-2.921zm169.791-37.975l-22.253-22.253 122.716-122.716 28.356 28.356V455l-128.819-36.63z"/><circle cx="323.191" cy="155.274" r=".527"/><path d="M307.664 155.274c0 8.562 6.965 15.527 15.527 15.527 8.561 0 15.526-6.965 15.526-15.527s-6.965-15.526-15.526-15.526-15.527 6.964-15.527 15.526z"/></symbol><symbol viewBox="0 0 18.7 35.4" id="arrow" xmlns="http://www.w3.org/2000/svg"><path d="M18.7 17L1.5 0 .1 1.4l16.2 16.3L0 34l1.6 1.4 17.1-17z"/></symbol><symbol viewBox="0 0 306 306" id="back" xmlns="http://www.w3.org/2000/svg"><path d="M247.35 270.3L130.05 153l117.3-117.3L211.65 0l-153 153 153 153z"/></symbol><symbol viewBox="0 0 469.933 469.933" id="checkmark" xmlns="http://www.w3.org/2000/svg"><path d="M429.281 44.605c-3.265-5.763-8.479-8.939-14.681-8.939a19.117 19.117 0 00-9.912 2.818c-2.046.967-3.783 2.178-5.306 3.702-92.628 92.594-171.423 169.412-254.288 242.798l-43.498-52.811c-4.222-5.126-8.927-6.203-12.126-6.203-3.846 0-7.782 1.559-10.778 4.154l-.708.375c-23.564 15.15-45.603 27.865-67.362 38.864-5.799 2.925-9.178 7.982-9.335 13.939-2.687 6.586-1.117 13.533 4.25 18.661 19.466 18.626 37.567 39.212 55.076 59.123 19.142 21.77 38.93 44.285 60.651 64.399a18.96 18.96 0 002.569 2.006c3.227 4.315 7.751 6.773 12.474 6.773 3.359 0 6.649-1.198 9.785-3.564 60.715-45.809 114.879-97.518 155.29-137.445a14493.3 14493.3 0 0135.692-35.146c41.757-41.032 84.935-83.464 125.782-126.53 2.234-2.349 3.752-5.073 4.514-8.094 3.575-5.545 3.407-12.056-.492-17.941-14.106-21.249-26.41-41.185-37.597-60.939zm-.178 69.526c-30.087 31.392-61.616 62.472-92.114 92.549-16.103 15.868-32.194 31.739-48.145 47.705-45.552 45.59-95.318 93.673-150.745 136.77-18.121-17.701-35.15-37.013-51.633-55.705-12.86-14.584-26.131-29.625-39.9-43.894 12.438-6.784 25.06-14.178 38.433-22.501l45.125 54.781c4.228 5.144 8.948 6.221 12.162 6.221 4.108 0 8.221-1.737 11.626-4.885a19.895 19.895 0 003.288-2.326c88.613-77.637 173.7-160.949 252.53-239.566 5.703 9.47 12.071 19.611 19.373 30.851z"/></symbol><symbol viewBox="0 0 15.642 15.642" id="close" xmlns="http://www.w3.org/2000/svg"><path fill-rule="evenodd" d="M8.882 7.821l6.541-6.541A.75.75 0 1014.362.219L7.821 6.76 1.28.22A.75.75 0 10.219 1.281L6.76 7.822l-6.54 6.54a.75.75 0 001.06 1.061l6.541-6.541 6.541 6.541a.75.75 0 101.06-1.061l-6.54-6.541z"/></symbol><symbol viewBox="0 0 408.788 408.788" id="facebook" xmlns="http://www.w3.org/2000/svg"><path d="M353.701 0H55.087C24.665 0 .002 24.662.002 55.085v298.616c0 30.423 24.662 55.085 55.085 55.085h147.275l.251-146.078h-37.951a8.954 8.954 0 01-8.954-8.92l-.182-47.087a8.955 8.955 0 018.955-8.989h37.882v-45.498c0-52.8 32.247-81.55 79.348-81.55h38.65a8.955 8.955 0 018.955 8.955v39.704a8.955 8.955 0 01-8.95 8.955l-23.719.011c-25.615 0-30.575 12.172-30.575 30.035v39.389h56.285c5.363 0 9.524 4.683 8.892 10.009l-5.581 47.087a8.955 8.955 0 01-8.892 7.901h-50.453l-.251 146.078h87.631c30.422 0 55.084-24.662 55.084-55.084V55.085C408.786 24.662 384.124 0 353.701 0z"/></symbol><symbol viewBox="0 0 512 512" id="fax" xmlns="http://www.w3.org/2000/svg"><path d="M469.333 358.4H230.4c-4.71 0-8.533 3.823-8.533 8.533s3.823 8.533 8.533 8.533h238.933c4.71 0 8.533-3.823 8.533-8.533s-3.822-8.533-8.533-8.533zM435.2 187.733h-34.133c-4.71 0-8.533 3.823-8.533 8.533s3.823 8.533 8.533 8.533H435.2c4.71 0 8.533-3.823 8.533-8.533s-3.823-8.533-8.533-8.533zm0 102.4h-34.133c-4.71 0-8.533 3.823-8.533 8.533s3.823 8.533 8.533 8.533H435.2c4.71 0 8.533-3.823 8.533-8.533s-3.823-8.533-8.533-8.533zm0-51.2h-34.133c-4.71 0-8.533 3.823-8.533 8.533s3.823 8.533 8.533 8.533H435.2c4.71 0 8.533-3.823 8.533-8.533s-3.823-8.533-8.533-8.533zm-221.867 153.6H204.8V25.6c0-14.114-11.486-25.6-25.6-25.6H76.8C62.686 0 51.2 11.486 51.2 25.6v341.333c0 4.71 3.823 8.533 8.533 8.533s8.533-3.823 8.533-8.533V25.6c0-4.702 3.831-8.533 8.533-8.533h102.4c4.702 0 8.533 3.831 8.533 8.533v409.6c0 4.702-3.831 8.533-8.533 8.533H76.8c-4.702 0-8.533-3.831-8.533-8.533v-34.133a8.536 8.536 0 00-8.533-8.533H42.667c-15.309 0-25.6-10.291-25.6-25.6v-307.2c0-9.114 4.796-17.348 12.826-22.025a8.54 8.54 0 003.081-11.674c-2.381-4.07-7.603-5.453-11.665-3.081C8.158 30.609 0 44.706 0 59.733v307.2C0 391.654 17.946 409.6 42.667 409.6H51.2v25.6c0 14.114 11.486 25.6 25.6 25.6h102.4c14.114 0 25.6-11.486 25.6-25.6v-25.6h8.533c4.71 0 8.533-3.823 8.533-8.533s-3.822-8.534-8.533-8.534zm238.934 0a8.53 8.53 0 00-8.533 8.533v93.867H256v-93.867c0-4.719-3.823-8.533-8.533-8.533s-8.533 3.814-8.533 8.533v102.4a8.536 8.536 0 008.533 8.533h204.8a8.536 8.536 0 008.533-8.533v-102.4a8.531 8.531 0 00-8.533-8.533z"/><path d="M298.667 460.8H384a8.536 8.536 0 008.533-8.533 8.536 8.536 0 00-8.533-8.533h-85.333a8.536 8.536 0 00-8.533 8.533c-.001 4.71 3.822 8.533 8.533 8.533zm0-34.133h102.4c4.71 0 8.533-3.823 8.533-8.533s-3.823-8.533-8.533-8.533h-102.4c-4.71 0-8.533 3.823-8.533 8.533s3.822 8.533 8.533 8.533zM264.533 256h34.133c4.71 0 8.533-3.823 8.533-8.533s-3.823-8.533-8.533-8.533h-34.133c-4.71 0-8.533 3.823-8.533 8.533s3.823 8.533 8.533 8.533zm0-51.2h34.133c4.71 0 8.533-3.823 8.533-8.533s-3.823-8.533-8.533-8.533h-34.133c-4.71 0-8.533 3.823-8.533 8.533s3.823 8.533 8.533 8.533zm0 102.4h34.133c4.71 0 8.533-3.823 8.533-8.533s-3.823-8.533-8.533-8.533h-34.133c-4.71 0-8.533 3.823-8.533 8.533s3.823 8.533 8.533 8.533zm204.8-290.133H230.4a8.536 8.536 0 00-8.533 8.533 8.536 8.536 0 008.533 8.533h238.933c14.114 0 25.6 11.486 25.6 25.6v315.733c0 9.045-4.847 17.51-12.663 22.093a8.535 8.535 0 00-3.038 11.682 8.527 8.527 0 0011.682 3.037C503.919 404.642 512 390.545 512 375.467V59.733c0-23.526-19.14-42.666-42.667-42.666z"/><path d="M366.933 238.933H332.8c-4.71 0-8.533 3.823-8.533 8.533S328.09 256 332.8 256h34.133c4.71 0 8.533-3.823 8.533-8.533s-3.822-8.534-8.533-8.534zm76.8-145.066a8.536 8.536 0 00-8.533-8.533H264.533A8.536 8.536 0 00256 93.867v51.2a8.536 8.536 0 008.533 8.533H435.2a8.536 8.536 0 008.533-8.533v-51.2zm-17.066 42.666h-153.6V102.4h153.6v34.133zm-59.734 153.6H332.8c-4.71 0-8.533 3.823-8.533 8.533s3.823 8.533 8.533 8.533h34.133c4.71 0 8.533-3.823 8.533-8.533s-3.822-8.533-8.533-8.533zm0-102.4H332.8c-4.71 0-8.533 3.823-8.533 8.533s3.823 8.533 8.533 8.533h34.133c4.71 0 8.533-3.823 8.533-8.533s-3.822-8.533-8.533-8.533z"/></symbol><symbol viewBox="0 0 382 382" id="linkedin" xmlns="http://www.w3.org/2000/svg"><path d="M347.445 0H34.555C15.471 0 0 15.471 0 34.555v312.889C0 366.529 15.471 382 34.555 382h312.889C366.529 382 382 366.529 382 347.444V34.555C382 15.471 366.529 0 347.445 0zM118.207 329.844c0 5.554-4.502 10.056-10.056 10.056H65.345c-5.554 0-10.056-4.502-10.056-10.056V150.403c0-5.554 4.502-10.056 10.056-10.056h42.806c5.554 0 10.056 4.502 10.056 10.056v179.441zM86.748 123.432c-22.459 0-40.666-18.207-40.666-40.666S64.289 42.1 86.748 42.1s40.666 18.207 40.666 40.666-18.206 40.666-40.666 40.666zM341.91 330.654a9.247 9.247 0 01-9.246 9.246H286.73a9.247 9.247 0 01-9.246-9.246v-84.168c0-12.556 3.683-55.021-32.813-55.021-28.309 0-34.051 29.066-35.204 42.11v97.079a9.246 9.246 0 01-9.246 9.246h-44.426a9.247 9.247 0 01-9.246-9.246V149.593a9.247 9.247 0 019.246-9.246h44.426a9.247 9.247 0 019.246 9.246v15.655c10.497-15.753 26.097-27.912 59.312-27.912 73.552 0 73.131 68.716 73.131 106.472v86.846z"/></symbol><symbol viewBox="0 0 512 512" id="mail" xmlns="http://www.w3.org/2000/svg"><path d="M0 128v384h512V128H0zm480 352H32V160h448v320zm-32-192h-96v-96h96v96zm-160 64H64v-32h224v32zm0 64H64v-32h224v32zM480 96H32V64h448v32zm-32-64H64V0h384v32z"/></symbol><symbol viewBox="0 0 27.442 27.442" id="mobile" xmlns="http://www.w3.org/2000/svg"><path d="M19.494 0H7.948a1.997 1.997 0 00-1.997 1.999v23.446c0 1.102.892 1.997 1.997 1.997h11.546a1.998 1.998 0 001.997-1.997V1.999A1.999 1.999 0 0019.494 0zm-8.622 1.214h5.7c.144 0 .261.215.261.481s-.117.482-.261.482h-5.7c-.145 0-.26-.216-.26-.482s.115-.481.26-.481zm2.85 24.255a1.275 1.275 0 110-2.55 1.275 1.275 0 010 2.55zm6.273-4.369H7.448V3.373h12.547V21.1z"/></symbol><symbol id="pen" viewBox="0 0 331.3 331.3" xml:space="preserve" xmlns="http://www.w3.org/2000/svg"><style>.kst0{fill:#010002}</style><path class="kst0" d="M30.4 317.5l4.4-17.7-12.2-4.8-8.4 13.8s4.6 12.5-.5 22.5c.1 0 6.5-10.9 16.7-13.8zm-8.2-8.1c1.5-.6 3.2.1 3.9 1.6.6 1.5-.1 3.2-1.6 3.8-1.5.6-3.2-.1-3.9-1.6-.6-1.5.1-3.2 1.6-3.8zm136.2-196.8C123.2 141.4 77.3 200.7 38.3 270l-6.8 12 7.3 2.8 3.8-10.1C63.4 237.2 119.8 139.3 223 74.2c0 0 38.4-22.9 76.3-54.5-9.2 7.7-27.4 17.4-37.2 23.6-26 16.4-57.9 31.7-103.7 69.3z"/><path class="kst0" d="M33.2 215.4c-8 28.2-7.5 49.7-4.4 55.6h4.8c13.3-27.6 77.6-127.7 117.6-159 41.4-32.5 73.4-51.3 100.3-65.1 9.4-4.8 19.1-11.4 27.8-17.9 10.6-8.4 21.3-17.3 30.8-26.1l-27.3 17.9L295 2.2l-23.2 23.6 15-25.8c-35.7 3.2-68.9 21.1-68.9 21.1-13.3 15.7-24 40.8-24 40.8-.4-12.5 8.1-31.5 8.1-31.5-6.3 2.9-30.1 16.5-30.1 16.5-11.6 9.7-15.3 35.1-15.3 35.1-2.2-10 5.5-29.3 5.5-29.3-33.5 19.3-57.5 52.2-57.5 52.2-16.6 32.6-2.9 58-8.1 51.9s-4.1-28.3-4.1-28.3c-35 33.6-38.7 49.7-38.7 49.7-5.9 14.3-11.1 52.6-11.1 52.6-3.3-3.6 0-23.6 0-23.6-8.5 17.9-4.4 34.7-4.4 34.7-3.9-1.5-5-26.5-5-26.5z"/><path class="kst0" d="M310 14.2s-13.5 13.1-30.8 26.1C252.1 61.7 226 79.1 226 79.1 123.9 139.4 67 237.9 48.2 271.7h10c3.5-2.8 8.8-5 31-11.4 28-8.1 44.7-25 44.7-25s-25.6 14.3-37.6 12.9-28.2 3.1-28.2 3.1-6.2-2.9 24.3-7.4 80.6-38.6 80.6-38.6-19.2 7.9-28 7.2c-8.8-.7-30.7 0-30.7 0 14.5-3.3 28-1.4 50.1-9.8 22.1-8.3 20.9-7.6 20.9-7.6 25.1-8.3 35.5-34.3 35.5-34.3-4.3 1.7-37.4 5.7-51.2 1.7-13.7-4.1-37.1 0-37.1 0 22.1-7.4 27-4.1 32.4-4.3 5.4-.2 22.9 1.2 57.5-10.7s44.5-26.7 44.5-26.7l-23.4 3.1C258.8 121.1 276 111 276 111c-10.6 2.9-27 4.3-27 4.3 19.4-4.3 30.2-10.3 30.2-10.3 18.2-13.8 22.4-34.3 22.4-34.3-25.8 8.8-46.2 4.8-46.2 4.8 35.4-2.4 45.2-11.4 50.1-13.6 4.9-2.1 6.9-11 6.9-11-17.9 6.4-38.1 7.5-38.1 7.5C296.2 55 315 43.9 315 43.9V32.8c-8.5 4.8-23.4 8.6-23.4 8.6l23.2-15c1.3-7.6-4.8-12.2-4.8-12.2zM23.6 290.6l13.8 5.5 2.5-6.1-13.8-5.5z"/></symbol><symbol viewBox="0 0 376.167 376.167" id="phone" xmlns="http://www.w3.org/2000/svg"><path d="M301.491 339.962H74.677c-23.654 0-42.898-19.899-42.898-44.358 0-.149.004-.298.013-.447l8.709-155.59c.247-4.412 4.027-7.793 8.435-7.54a8 8 0 017.54 8.435L47.78 295.816c.108 15.54 12.133 28.147 26.898 28.147h226.814c14.765 0 26.79-12.607 26.897-28.147l-8.696-155.354a8 8 0 017.54-8.435c4.407-.265 8.188 3.128 8.435 7.54l8.709 155.59c.008.149.013.298.013.447 0 24.459-19.244 44.358-42.899 44.358zM79.167 116.128H8.917a8 8 0 010-16h70.25a8 8 0 010 16zm256 0h-70.305a8 8 0 010-16h70.305a8 8 0 010 16z"/><path d="M187.667 308.233c-50.847 0-92.214-41.367-92.214-92.214s41.367-92.214 92.214-92.214 92.214 41.367 92.214 92.214-41.367 92.214-92.214 92.214zm0-168.429c-42.025 0-76.214 34.189-76.214 76.214s34.189 76.214 76.214 76.214 76.214-34.189 76.214-76.214-34.19-76.214-76.214-76.214z"/><path d="M187.667 228.067c-6.643 0-12.048-5.405-12.048-12.048s5.405-12.048 12.048-12.048 12.048 5.405 12.048 12.048-5.405 12.048-12.048 12.048zm0-16c-2.179 0-3.952 1.773-3.952 3.952s1.773 3.952 3.952 3.952 3.952-1.773 3.952-3.952-1.773-3.952-3.952-3.952zm0-24.169c-10.871 0-19.714-8.844-19.714-19.714s8.844-19.714 19.714-19.714 19.714 8.844 19.714 19.714-8.844 19.714-19.714 19.714zm0-23.429c-2.048 0-3.714 1.666-3.714 3.714s1.666 3.714 3.714 3.714 3.714-1.666 3.714-3.714-1.666-3.714-3.714-3.714zm0 119.249c-10.871 0-19.714-8.844-19.714-19.714s8.844-19.714 19.714-19.714 19.714 8.844 19.714 19.714-8.844 19.714-19.714 19.714zm0-23.429c-2.048 0-3.714 1.666-3.714 3.714s1.666 3.714 3.714 3.714 3.714-1.666 3.714-3.714-1.666-3.714-3.714-3.714zm-41.503-48.434c-3.446 0-6.851-.914-9.846-2.643-9.414-5.436-12.651-17.517-7.216-26.931 3.511-6.082 10.058-9.859 17.084-9.859 3.446 0 6.851.914 9.846 2.643 9.415 5.437 12.651 17.518 7.216 26.931a19.78 19.78 0 01-17.084 9.859zm.023-23.433a3.687 3.687 0 00-3.228 1.859 3.72 3.72 0 003.205 5.574 3.687 3.687 0 003.228-1.859 3.72 3.72 0 00-3.205-5.574zm82.96 71.342c-3.447 0-6.852-.914-9.847-2.643-9.414-5.435-12.651-17.516-7.217-26.93a19.781 19.781 0 0117.085-9.86c3.446 0 6.851.914 9.846 2.643 9.414 5.435 12.651 17.516 7.216 26.931-3.51 6.082-10.056 9.859-17.083 9.859zm.022-23.432a3.687 3.687 0 00-3.228 1.859 3.719 3.719 0 001.36 5.074c.574.332 1.195.5 1.847.5a3.686 3.686 0 003.227-1.859 3.718 3.718 0 00-3.206-5.574zm-82.983 23.432a19.78 19.78 0 01-17.084-9.859c-5.435-9.414-2.198-21.495 7.216-26.931a19.723 19.723 0 019.846-2.643 19.78 19.78 0 0117.084 9.859c5.435 9.414 2.198 21.495-7.216 26.93a19.708 19.708 0 01-9.846 2.644zm-.022-23.432a3.72 3.72 0 00-3.205 5.574 3.686 3.686 0 003.228 1.859 3.72 3.72 0 003.206-5.574 3.69 3.69 0 00-3.229-1.859zm83.005-24.477a19.78 19.78 0 01-17.084-9.859c-5.435-9.414-2.198-21.495 7.216-26.93a19.724 19.724 0 019.847-2.643 19.78 19.78 0 0117.083 9.859c5.436 9.415 2.198 21.496-7.216 26.931a19.733 19.733 0 01-9.846 2.642zm-.022-23.433a3.719 3.719 0 00-3.207 5.574 3.687 3.687 0 003.228 1.859 3.65 3.65 0 001.847-.5 3.694 3.694 0 001.73-2.255 3.7 3.7 0 00-.371-2.819 3.685 3.685 0 00-3.227-1.859zm-117.293-40.401h-.02L8 148.019a8 8 0 01-8-8V103.6c0-.607.069-1.211.206-1.803 7.589-32.811 7.673-33.128 7.741-33.382 2.128-8.024 9.245-13.787 20.038-16.222C74.04 41.882 131.749 36.205 190.494 36.205c58.757 0 116.473 5.679 162.518 15.992 10.54 2.37 13.203 12.03 14.34 16.155.079.285.175.637 8.609 37.07a8 8 0 01.206 1.804v32.79a8 8 0 01-8 8l-104.438.003a8 8 0 01-8-7.99l-.059-44.88c-20.58-2.26-42.26-3.405-64.557-3.405-24.001 0-47.956 1.313-71.319 3.908l.039 43.792a8 8 0 01-7.979 8.577zM16 132.019l87.826.002-.035-39.119.002-4.373a8 8 0 017.025-7.937c26.218-3.217 53.233-4.849 80.294-4.849 25.5 0 50.242 1.462 73.538 4.345a8 8 0 017.018 7.946l-.003 4.122.002.16.052 39.703 88.448-.003V108.14c-6.685-28.875-8.072-34.82-8.268-35.637-1.232-4.435-1.957-4.597-2.392-4.695-44.924-10.062-101.399-15.604-159.014-15.604-57.604 0-114.072 5.54-159 15.598-4.37.986-7.53 2.815-8.068 4.669-.205.861-1.701 7.296-7.424 32.041v27.507z"/></symbol><symbol viewBox="0 0 512 512" id="search" xmlns="http://www.w3.org/2000/svg"><path d="M497.938 430.062l-62.28-62.28a257.786 257.786 0 01-67.875 67.875l62.28 62.28c18.75 18.75 49.156 18.75 67.875 0 18.75-18.749 18.75-49.125 0-67.875zM448 224C448 100.281 347.719 0 224 0S0 100.281 0 224s100.281 224 224 224 224-100.281 224-224zM224 400c-97.047 0-176-78.969-176-176 0-97.047 78.953-176 176-176 97.031 0 176 78.953 176 176 0 97.031-78.969 176-176 176z"/></symbol><symbol viewBox="0 0 410.155 410.155" id="twitter" xmlns="http://www.w3.org/2000/svg"><path d="M403.632 74.18a162.414 162.414 0 01-28.28 9.537 88.177 88.177 0 0023.275-37.067c1.295-4.051-3.105-7.554-6.763-5.385a163.188 163.188 0 01-43.235 17.862 11.02 11.02 0 01-2.702.336c-2.766 0-5.455-1.027-7.57-2.891-16.156-14.239-36.935-22.081-58.508-22.081-9.335 0-18.76 1.455-28.014 4.325-28.672 8.893-50.795 32.544-57.736 61.724-2.604 10.945-3.309 21.9-2.097 32.56a3.166 3.166 0 01-.797 2.481 3.278 3.278 0 01-2.753 1.091c-62.762-5.831-119.358-36.068-159.363-85.14-2.04-2.503-5.952-2.196-7.578.593-7.834 13.44-11.974 28.812-11.974 44.454 0 23.972 9.631 46.563 26.36 63.032a79.24 79.24 0 01-20.169-7.808c-3.06-1.7-6.825.485-6.868 3.985-.438 35.612 20.412 67.3 51.646 81.569a79.567 79.567 0 01-16.786-1.399c-3.446-.658-6.341 2.611-5.271 5.952 10.138 31.651 37.39 54.981 70.002 60.278-27.066 18.169-58.585 27.753-91.39 27.753l-10.227-.006c-3.151 0-5.816 2.054-6.619 5.106-.791 3.006.666 6.177 3.353 7.74 36.966 21.513 79.131 32.883 121.955 32.883 37.485 0 72.549-7.439 104.219-22.109 29.033-13.449 54.689-32.674 76.255-57.141 20.09-22.792 35.8-49.103 46.692-78.201 10.383-27.737 15.871-57.333 15.871-85.589v-1.346c-.001-4.537 2.051-8.806 5.631-11.712a174.776 174.776 0 0035.16-38.591c2.573-3.849-1.485-8.673-5.719-6.795z"/></symbol></svg>