<?xml version="1.0" encoding="utf-8"?>
<!-- Generator: Adobe Illustrator 19.2.1, SVG Export Plug-In . SVG Version: 6.00 Build 0)  -->
<svg version="1.1" id="Capa_1" xmlns="http://www.w3.org/2000/svg" xmlns:xlink="http://www.w3.org/1999/xlink" x="0px" y="0px"
	 viewBox="0 0 331.3 331.3" style="enable-background:new 0 0 331.3 331.3;" xml:space="preserve">
<style type="text/css">
	.st0{fill:#010002;}
</style>
<g>
	<path class="st0" d="M30.4,317.5l4.4-17.7L22.6,295l-8.4,13.8c0,0,4.6,12.5-0.5,22.5C13.8,331.3,20.2,320.4,30.4,317.5z
		 M22.2,309.4c1.5-0.6,3.2,0.1,3.9,1.6c0.6,1.5-0.1,3.2-1.6,3.8c-1.5,0.6-3.2-0.1-3.9-1.6C20,311.7,20.7,310,22.2,309.4z"/>
	<path class="st0" d="M158.4,112.6C123.2,141.4,77.3,200.7,38.3,270l0,0l-6.8,12l7.3,2.8l3.8-10.1c20.8-37.5,77.2-135.4,180.4-200.5
		c0,0,38.4-22.9,76.3-54.5c-9.2,7.7-27.4,17.4-37.2,23.6C236.1,59.7,204.2,75,158.4,112.6z"/>
	<path class="st0" d="M33.2,215.4c-8,28.2-7.5,49.7-4.4,55.6h4.8c13.3-27.6,77.6-127.7,117.6-159c41.4-32.5,73.4-51.3,100.3-65.1
		c9.4-4.8,19.1-11.4,27.8-17.9c10.6-8.4,21.3-17.3,30.8-26.1l-27.3,17.9l12.2-18.6l-23.2,23.6L286.8,0
		c-35.7,3.2-68.9,21.1-68.9,21.1c-13.3,15.7-24,40.8-24,40.8c-0.4-12.5,8.1-31.5,8.1-31.5c-6.3,2.9-30.1,16.5-30.1,16.5
		c-11.6,9.7-15.3,35.1-15.3,35.1c-2.2-10,5.5-29.3,5.5-29.3c-33.5,19.3-57.5,52.2-57.5,52.2c-16.6,32.6-2.9,58-8.1,51.9
		s-4.1-28.3-4.1-28.3c-35,33.6-38.7,49.7-38.7,49.7c-5.9,14.3-11.1,52.6-11.1,52.6c-3.3-3.6,0-23.6,0-23.6
		c-8.5,17.9-4.4,34.7-4.4,34.7C34.3,240.4,33.2,215.4,33.2,215.4z"/>
	<path class="st0" d="M310,14.2c0,0-13.5,13.1-30.8,26.1c-27.1,21.4-53.2,38.8-53.2,38.8C123.9,139.4,67,237.9,48.2,271.7h10
		c3.5-2.8,8.8-5,31-11.4c28-8.1,44.7-25,44.7-25s-25.6,14.3-37.6,12.9s-28.2,3.1-28.2,3.1s-6.2-2.9,24.3-7.4s80.6-38.6,80.6-38.6
		s-19.2,7.9-28,7.2c-8.8-0.7-30.7,0-30.7,0c14.5-3.3,28-1.4,50.1-9.8c22.1-8.3,20.9-7.6,20.9-7.6c25.1-8.3,35.5-34.3,35.5-34.3
		c-4.3,1.7-37.4,5.7-51.2,1.7c-13.7-4.1-37.1,0-37.1,0c22.1-7.4,27-4.1,32.4-4.3c5.4-0.2,22.9,1.2,57.5-10.7s44.5-26.7,44.5-26.7
		l-23.4,3.1C258.8,121.1,276,111,276,111c-10.6,2.9-27,4.3-27,4.3c19.4-4.3,30.2-10.3,30.2-10.3c18.2-13.8,22.4-34.3,22.4-34.3
		c-25.8,8.8-46.2,4.8-46.2,4.8c35.4-2.4,45.2-11.4,50.1-13.6c4.9-2.1,6.9-11,6.9-11c-17.9,6.4-38.1,7.5-38.1,7.5
		C296.2,55,315,43.9,315,43.9V32.8c-8.5,4.8-23.4,8.6-23.4,8.6l23.2-15C316.1,18.8,310,14.2,310,14.2z"/>
	<polygon class="st0" points="23.6,290.6 37.4,296.1 39.9,290 26.1,284.5 	"/>
</g>
</svg>
